<?xml version="1.0" encoding="UTF-8" standalone="no"?>
<!-- Created with Inkscape (http://www.inkscape.org/) -->

<svg
   width="65.919144mm"
   height="15.868463mm"
   viewBox="0 0 65.919144 15.868463"
   version="1.1"
   id="svg1"
   inkscape:version="1.3 (0e150ed6c4, 2023-07-21)"
   sodipodi:docname="logo-midistral.svg"
   xmlns:inkscape="http://www.inkscape.org/namespaces/inkscape"
   xmlns:sodipodi="http://sodipodi.sourceforge.net/DTD/sodipodi-0.dtd"
   xmlns="http://www.w3.org/2000/svg"
   xmlns:svg="http://www.w3.org/2000/svg">
  <sodipodi:namedview
     id="namedview1"
     pagecolor="#ffffff"
     bordercolor="#000000"
     borderopacity="0.25"
     inkscape:showpageshadow="2"
     inkscape:pageopacity="0.0"
     inkscape:pagecheckerboard="true"
     inkscape:deskcolor="#d1d1d1"
     inkscape:document-units="mm"
     inkscape:zoom="1.5382846"
     inkscape:cx="224.60083"
     inkscape:cy="-21.777505"
     inkscape:window-width="1419"
     inkscape:window-height="1237"
     inkscape:window-x="1012"
     inkscape:window-y="0"
     inkscape:window-maximized="0"
     inkscape:current-layer="layer1" />
  <defs
     id="defs1" />
  <g
     inkscape:label="Calque 1"
     inkscape:groupmode="layer"
     id="layer1"
     transform="translate(-20.668372,-118.37085)">
    <path
       style="font-size:19.7556px;font-family:'Musical Tone';-inkscape-font-specification:'Musical Tone';stroke-width:0.264583"
       d="m 33.998107,118.37085 c -0.355601,0 -0.395112,0 -3.259674,4.32647 -0.414867,0.61243 -0.849491,1.28412 -1.126069,1.69898 -0.553157,-0.63218 -1.600204,-1.89653 -2.429939,-2.90407 -1.224847,-1.44216 -1.797759,-2.1336 -2.113849,-2.46945 l 0.01976,-0.1778 c 0,-0.25682 -0.197556,-0.47413 -0.454379,-0.47413 -0.256823,0 -0.474135,0.19755 -0.474135,0.43462 v 0.11853 c -1.185336,0.29634 -2.923828,1.28412 -3.081873,3.57577 -0.01976,0.25682 0.1778,0.47413 0.434623,0.49389 0.256823,0.0197 0.474134,-0.1778 0.474134,-0.43463 0.118534,-1.75825 1.422404,-2.42994 2.173116,-2.667 v 11.81385 c -0.434623,-0.11854 -0.968024,-0.13829 -1.540936,-0.0198 -1.205092,0.25682 -2.074338,1.00754 -1.936049,1.69898 0.138289,0.67169 1.244603,1.02729 2.449694,0.77047 1.224847,-0.23707 2.094094,-1.00754 1.955805,-1.67923 0,0 0,-0.0197 0,-0.0197 v -9.83829 l 3.536252,4.10916 c 0.05927,0.079 0.138289,0.0988 0.237067,0.0988 0,0 0,0 0.01976,0 0.07902,0 0.1778,-0.0395 0.237067,-0.11853 l 1.363136,-1.95581 c 0,0 0,-0.0198 0,-0.0395 0.237068,-0.33584 0.553157,-0.82973 1.027292,-1.50142 0.237067,-0.39511 0.533401,-0.82974 0.84949,-1.28412 v 9.77903 c 0,0.1778 0.13829,0.31609 0.296334,0.31609 0.177801,0 0.31609,-0.13829 0.31609,-0.31609 V 121.0181 c 0.197556,-0.31609 0.395112,-0.59267 0.572912,-0.84949 v 11.37922 c 0,0.25682 0.197556,0.47414 0.454379,0.47414 0.256823,0 0.454379,-0.21732 0.454379,-0.47414 v -12.72261 c 0,-0.25682 -0.197556,-0.45437 -0.454379,-0.45437 z m -8.909775,2.05458 c 0.395112,0.49389 0.908757,1.08656 1.382892,1.65947 1.540936,1.85702 2.271894,2.72627 2.64725,3.14114 l -0.454379,0.61242 -3.575763,-4.16843 z m 11.912641,1.0668 c -0.770469,0.1778 -1.323625,0.5334 -1.224847,0.94827 0.07902,0.41487 0.790224,0.61242 1.560692,0.43462 0.790224,-0.1778 1.323625,-0.5334 1.224847,-0.94827 -0.07902,-0.41486 -0.790224,-0.61242 -1.560692,-0.43462 z m -0.31609,2.48921 c -0.256823,0 -0.454379,0.19755 -0.454379,0.45437 v 7.11202 c 0,0.25682 0.197556,0.47414 0.454379,0.47414 0.256823,0 0.454379,-0.21732 0.454379,-0.47414 v -7.11202 c 0,-0.25682 -0.197556,-0.45437 -0.454379,-0.45437 z m 1.106314,0.0395 c -0.177801,0 -0.31609,0.13829 -0.31609,0.29633 v 7.3886 c 0,0.15804 0.138289,0.29633 0.31609,0.29633 0.158045,0 0.296334,-0.13829 0.296334,-0.29633 v -7.3886 c 0,-0.15804 -0.138289,-0.29633 -0.296334,-0.29633 z m 8.534401,7.84297 c -0.237067,-0.0593 -0.454379,-0.079 -0.671691,-0.0593 v -12.95967 c 0,-0.25682 -0.197556,-0.45438 -0.454378,-0.45438 -0.256823,0 -0.454379,0.19756 -0.454379,0.45438 v 5.1167 c -0.09878,0.0198 -0.217312,0.0198 -0.355601,0.0395 v -5.25499 c 0,-0.15804 -0.138289,-0.29633 -0.296334,-0.29633 -0.1778,0 -0.31609,0.13829 -0.31609,0.29633 v 5.33401 c -1.106313,0.1778 -2.607739,0.53341 -3.397963,1.30387 -0.355601,0.33585 -0.553157,0.73096 -0.553157,1.18534 v 0.11853 c 0,2.41019 0,4.10917 0.01976,4.91915 0,0.65193 0.395112,1.10631 1.106314,1.26436 0.1778,0.0395 0.414867,0.0593 0.651934,0.0593 0.98778,0 2.29165,-0.3556 3.141141,-0.80998 v 0.29634 c 0,0 0,0.0197 0,0.0197 0,0 0,0.0198 0,0.0395 0.01975,0.079 0.03951,0.15805 0.09878,0.21732 0.1778,0.29633 0.592668,0.55315 1.126069,0.67169 0.790224,0.1778 1.48167,0 1.580448,-0.43463 0.09878,-0.41486 -0.454379,-0.889 -1.224847,-1.0668 z m -5.294501,0.079 c -0.217312,-0.079 -0.276578,-0.1778 -0.276578,-0.33584 0,-0.80998 0,-2.50896 0,-4.91915 v -0.11853 c 0,-0.69145 1.224847,-1.12607 1.936048,-1.32363 0.375357,-0.0988 0.750713,-0.1778 1.086558,-0.23706 v 6.5391 c -0.869246,0.33585 -2.094093,0.61242 -2.746028,0.39511 z m 3.358452,-0.65193 v -6.36131 c 0.138289,-0.0198 0.256823,-0.0395 0.355601,-0.0395 v 6.16375 c -0.07902,0.079 -0.197556,0.15805 -0.355601,0.23707 z m 4.524026,-9.79878 c -0.770468,0.1778 -1.323625,0.5334 -1.224847,0.94827 0.07902,0.41487 0.790224,0.61242 1.560692,0.43462 0.790224,-0.1778 1.323626,-0.5334 1.224848,-0.94827 -0.07902,-0.41486 -0.790224,-0.61242 -1.560693,-0.43462 z m -0.316089,2.48921 c -0.256823,0 -0.454379,0.19755 -0.454379,0.45437 v 7.11202 c 0,0.25682 0.197556,0.47414 0.454379,0.47414 0.256822,0 0.454378,-0.21732 0.454378,-0.47414 v -7.11202 c 0,-0.25682 -0.197556,-0.45437 -0.454378,-0.45437 z m 1.106313,0.0395 c -0.1778,0 -0.316089,0.13829 -0.316089,0.29633 v 7.3886 c 0,0.15804 0.138289,0.29633 0.316089,0.29633 0.158045,0 0.296334,-0.13829 0.296334,-0.29633 v -7.3886 c 0,-0.15804 -0.138289,-0.29633 -0.296334,-0.29633 z m 7.171249,2.86456 c 0.434623,0 0.770469,-0.63218 0.770469,-1.44216 0,-0.49389 -0.13829,-0.98778 -0.355601,-1.2446 -0.09878,-0.13829 -0.276579,-0.23707 -0.474135,-0.19756 -0.237067,0.0395 -0.49389,0.0988 -0.750712,0.13829 -2.192872,0.37536 -4.682078,0.79022 -4.682078,3.1609 v 1.0668 c 0,0.5334 0.158045,0.94827 0.49389,1.18534 0.651935,0.51364 1.698982,0.21731 2.805296,-0.0988 0.3556,-0.0988 0.770468,-0.23707 1.145824,-0.29634 v 2.78554 c -0.691446,0.3556 -1.718737,0.55316 -3.022606,0.73096 0.01976,-0.13829 0.03951,-0.27658 0.03951,-0.41487 0,-0.80998 -0.355601,-1.54093 -0.770469,-1.44216 -0.434623,0.0988 -0.790224,0.63218 -0.790224,1.44216 0,0.65194 0.256823,1.20509 0.572913,1.36314 0.07902,0.0395 0.138289,0.079 0.217311,0.079 0.01976,0 0.03951,-0.0197 0.07902,-0.0197 0.1778,-0.0198 0.375356,-0.0395 0.572912,-0.079 2.173116,-0.29633 4.899389,-0.65193 4.899389,-3.06211 v -0.98778 c 0,-0.49389 -0.158045,-0.86925 -0.474134,-1.10632 -0.63218,-0.47413 -1.639715,-0.19755 -2.726273,0.11854 -0.375357,0.0988 -0.80998,0.23706 -1.205092,0.29633 v -3.02261 c 0.671691,-0.3556 1.679226,-0.57291 2.904073,-0.79022 -0.01976,0.13829 -0.01976,0.25682 -0.01976,0.39511 0,0.80998 0.335845,1.44216 0.770468,1.44216 z m -0.1778,2.66701 v 0.98778 c 0,0.3556 -0.07902,0.65193 -0.256823,0.889 v -2.31141 c 0.05927,0.0198 0.118534,0.0395 0.158045,0.0593 0.07902,0.079 0.09878,0.23707 0.09878,0.37536 z m -4.405499,-1.18534 v -1.0668 c 0,-0.39512 0.118534,-0.7112 0.31609,-0.96803 v 2.54847 c -0.07902,0 -0.13829,-0.0197 -0.177801,-0.0593 -0.118533,-0.079 -0.138289,-0.29634 -0.138289,-0.45438 z m 12.60409,1.40265 c -0.256823,0 -0.454379,0.21731 -0.454379,0.47413 0,0.51365 -1.185336,1.12607 -2.212627,1.12607 0,0 0,0 0,0 v -7.15153 l 1.501426,-0.3556 c 0.158045,-0.0395 0.276578,-0.19755 0.237067,-0.3556 -0.03951,-0.1778 -0.217312,-0.27658 -0.375356,-0.23707 l -1.363137,0.31609 v -4.78085 c 0,-0.1778 -0.138289,-0.31609 -0.316089,-0.31609 -0.158045,0 -0.296334,0.13829 -0.296334,0.31609 v 4.91914 l -0.355601,0.0988 c 0,-1.99531 0,-3.85234 0,-4.84012 v -0.13829 c 0,-0.25682 -0.217312,-0.45438 -0.474135,-0.45438 -0.256822,0 -0.454378,0.19756 -0.454378,0.45438 v 0.13829 c 0,1.00753 0,2.98309 0,5.03768 l -1.48167,0.3556 c -0.158045,0.0395 -0.256823,0.19755 -0.217312,0.3556 0.01976,0.13829 0.158045,0.23707 0.296334,0.23707 0.01976,0 0.03951,0 0.05927,0 l 1.343381,-0.31609 c 0,2.76578 0,5.51181 0,6.16374 0.01976,0.90876 0.730957,1.46192 1.876782,1.46192 0.01976,0 0.01976,0 0.01976,0 1.30387,0 3.121385,-0.79023 3.121385,-2.03483 0,-0.25682 -0.197556,-0.47413 -0.454379,-0.47413 z m -3.63503,1.04704 c 0,-0.67169 0,-3.53625 0,-6.38106 l 0.355601,-0.079 v 6.91446 c -0.197556,-0.079 -0.355601,-0.21731 -0.355601,-0.45438 z m 10.134649,-6.67739 c 0,0 0,0 0,0 -0.01976,-0.0198 -0.03951,-0.0395 -0.05927,-0.0593 0,0 -0.01976,0 -0.01976,-0.0197 -0.01976,0 -0.03951,0 -0.05927,-0.0198 0,0 -0.01976,0 -0.03951,-0.0198 0,0 0,0 -0.01976,0 -0.05927,-0.0198 -0.138289,-0.0198 -0.217311,0 -0.256823,0.0395 -0.691446,0.15804 -1.185336,0.27658 -0.829735,0.1778 -1.817515,0.41486 -2.726273,0.61242 v -0.47414 c 0,-0.25682 -0.197556,-0.45437 -0.454379,-0.45437 -0.256823,0 -0.454379,0.19755 -0.454379,0.45437 v 7.70469 c 0,0.25682 0.197556,0.47413 0.454379,0.47413 0.256823,0 0.454379,-0.21731 0.454379,-0.47413 v -6.30204 c 0.118534,-0.0198 0.237067,-0.0395 0.335845,-0.0593 v 6.1835 c 0,0.1778 0.138289,0.31609 0.31609,0.31609 0.158045,0 0.296334,-0.13829 0.296334,-0.31609 v -6.32179 c 0.691446,-0.15805 1.382892,-0.31609 1.97556,-0.45438 0.118533,-0.0198 0.217311,-0.0593 0.316089,-0.079 -0.01975,0.11853 -0.03951,0.23706 -0.03951,0.3556 0,0.79022 0.355601,1.44215 0.790224,1.44215 0.434623,0 0.770469,-0.65193 0.770469,-1.44215 0,-0.55316 -0.177801,-1.10632 -0.434624,-1.32363 z m 7.566418,4.66232 c -0.434623,0 -0.790224,0.65194 -0.790224,1.44216 0,0.31609 0.05927,0.61242 0.158045,0.84949 -0.03951,0 -0.09878,0.0198 -0.138289,0.0198 -0.138289,0 -0.276578,-0.0395 -0.375356,-0.11854 -0.07902,-0.079 -0.118534,-0.15804 -0.118534,-0.29633 v -0.43462 c 0,-0.0198 0,-0.0593 0,-0.079 v -5.72912 c 0,-0.25682 -0.197556,-0.45438 -0.454379,-0.45438 -0.256823,0 -0.474134,0.19756 -0.474134,0.45438 v 0.1778 c -1.30387,0.19756 -4.820367,1.0668 -4.820367,3.02261 v 0.11853 c 0,0.43462 0,1.83727 0,3.04236 0.01976,0.49389 0.256823,0.88901 0.711202,1.06681 0.197556,0.079 0.454379,0.11853 0.730957,0.11853 1.066803,0 2.528717,-0.55316 3.417719,-0.98778 0.05927,0.27658 0.217312,0.51365 0.434623,0.69145 0.256823,0.21731 0.592668,0.31609 0.948269,0.31609 0.651935,0 1.343381,-0.39512 1.461914,-1.10632 0.03951,-0.19755 0.07902,-0.43462 0.07902,-0.67169 0,-0.79022 -0.335845,-1.44216 -0.770469,-1.44216 z m -2.192871,1.18534 c -0.07902,0.0593 -0.217312,0.11853 -0.355601,0.19755 v -4.56354 c 0.138289,-0.0395 0.256823,-0.0593 0.355601,-0.079 z m -3.793075,1.02729 c -0.03951,-0.0198 -0.09878,-0.0395 -0.09878,-0.19756 -0.01976,-1.20509 -0.01976,-2.60774 -0.01976,-3.04236 v -0.11853 c 0,-0.889 1.65947,-1.54094 2.943584,-1.89654 v 4.70183 c -0.98778,0.39511 -2.311405,0.80998 -2.82505,0.55316 z m 12.821362,-2.84481 c -0.414867,0 -0.770468,0.63218 -0.770468,1.44216 0,0.27658 0.05927,0.57291 0.138289,0.80998 -0.592668,0.31609 -1.698982,0.7112 -2.568228,0.75071 v -12.367 c 0,-0.1778 -0.138289,-0.31609 -0.31609,-0.31609 -0.158044,0 -0.296334,0.13829 -0.296334,0.31609 v 12.32749 c -0.01975,0 -0.03951,0 -0.05927,-0.0197 -0.276579,-0.0593 -0.296334,-0.1778 -0.296334,-0.29634 -0.01976,-1.18533 -0.01976,-9.3444 0,-11.8336 v -0.13829 c 0,-0.25682 -0.217312,-0.45438 -0.474135,-0.45438 -0.256823,0 -0.454379,0.19756 -0.454379,0.45438 v 0.13829 c 0,2.4892 0,10.64827 0,11.8336 0.01976,0.29634 0.13829,1.28412 1.698982,1.28412 0.01976,0 0.01976,0 0.01976,0 0.968024,0 2.706517,-0.47414 3.556008,-1.12607 0.335845,-0.1778 0.612423,-0.67169 0.612423,-1.36314 0,-0.80998 -0.355601,-1.44216 -0.790224,-1.44216 z"
       id="text2"
       aria-label="Midistral" />
  </g>
</svg>
